<svg xmlns="http://www.w3.org/2000/svg" viewBox="0 0 64 64" role="img" aria-label="Cartoon penguin wearing a chef hat">
  <circle cx="32" cy="32" r="30" fill="#e9f2ff"/>
  <ellipse cx="32" cy="36" rx="18" ry="20" fill="#1f2937"/>
  <ellipse cx="32" cy="40" rx="11" ry="13" fill="#fff9f0"/>
  <ellipse cx="25" cy="32" rx="3" ry="4" fill="#111827"/>
  <ellipse cx="39" cy="32" rx="3" ry="4" fill="#111827"/>
  <circle cx="24" cy="30" r="1.2" fill="#ffffff" opacity="0.85"/>
  <circle cx="38" cy="30" r="1.2" fill="#ffffff" opacity="0.85"/>
  <path d="M32 35l-5 4h10l-5-4z" fill="#f59e0b"/>
  <path d="M32 39c-2.8 0-5.1 1.6-6 4h12c-.9-2.4-3.2-4-6-4z" fill="#f97316"/>
  <path d="M20 24c-1.8-6.5 2.8-12 8.8-12 1.4 0 2.6.3 3.6.9 1.1-1.2 2.8-1.9 4.7-1.9 4.7 0 8.5 3.9 8.5 8.8 2.2.5 3.9 2.5 3.9 5 0 .4 0 .8-.1 1.2H20.5c-.3-.6-.5-1.3-.5-2z" fill="#ffffff"/>
  <path d="M20.5 25.5h28" stroke="#cbd5e1" stroke-width="2" stroke-linecap="round"/>
  <path d="M28 19v6M35 17.5v8M42 20v5" stroke="#dbe4ee" stroke-width="2" stroke-linecap="round"/>
  <path d="M18 49c3.2 4.4 8.3 7 14 7s10.8-2.6 14-7" fill="none" stroke="#93c5fd" stroke-width="2.5" stroke-linecap="round"/>
</svg>
